<mxfile host="app.diagrams.net" agent="Mozilla/5.0 (Windows NT 10.0; Win64; x64) AppleWebKit/537.36 (KHTML, like Gecko) Chrome/130.0.0.0 Safari/537.36" version="24.8.3">
  <diagram id="C5RBs43oDa-KdzZeNtuy" name="Page-1">
    <mxGraphModel dx="1467" dy="263" grid="1" gridSize="10" guides="1" tooltips="1" connect="1" arrows="1" fold="1" page="1" pageScale="1" pageWidth="827" pageHeight="1169" math="0" shadow="0">
      <root>
        <mxCell id="WIyWlLk6GJQsqaUBKTNV-0" />
        <mxCell id="WIyWlLk6GJQsqaUBKTNV-1" parent="WIyWlLk6GJQsqaUBKTNV-0" />
        <mxCell id="tLWH3kKmql8vXcp0YI-F-4" value="halaman utama" style="swimlane;fontStyle=0;childLayout=stackLayout;horizontal=1;startSize=26;fillColor=none;horizontalStack=0;resizeParent=1;resizeParentMax=0;resizeLast=0;collapsible=1;marginBottom=0;html=1;" parent="WIyWlLk6GJQsqaUBKTNV-1" vertex="1">
          <mxGeometry x="70" y="110" width="140" height="104" as="geometry" />
        </mxCell>
        <mxCell id="tLWH3kKmql8vXcp0YI-F-5" value="Item 1" style="text;strokeColor=none;fillColor=none;align=left;verticalAlign=top;spacingLeft=4;spacingRight=4;overflow=hidden;rotatable=0;points=[[0,0.5],[1,0.5]];portConstraint=eastwest;whiteSpace=wrap;html=1;" parent="tLWH3kKmql8vXcp0YI-F-4" vertex="1">
          <mxGeometry y="26" width="140" height="26" as="geometry" />
        </mxCell>
        <mxCell id="tLWH3kKmql8vXcp0YI-F-6" value="Item 2" style="text;strokeColor=none;fillColor=none;align=left;verticalAlign=top;spacingLeft=4;spacingRight=4;overflow=hidden;rotatable=0;points=[[0,0.5],[1,0.5]];portConstraint=eastwest;whiteSpace=wrap;html=1;" parent="tLWH3kKmql8vXcp0YI-F-4" vertex="1">
          <mxGeometry y="52" width="140" height="26" as="geometry" />
        </mxCell>
        <mxCell id="tLWH3kKmql8vXcp0YI-F-7" value="Item 3" style="text;strokeColor=none;fillColor=none;align=left;verticalAlign=top;spacingLeft=4;spacingRight=4;overflow=hidden;rotatable=0;points=[[0,0.5],[1,0.5]];portConstraint=eastwest;whiteSpace=wrap;html=1;" parent="tLWH3kKmql8vXcp0YI-F-4" vertex="1">
          <mxGeometry y="78" width="140" height="26" as="geometry" />
        </mxCell>
        <mxCell id="tLWH3kKmql8vXcp0YI-F-8" value="Halaman detail per product" style="swimlane;fontStyle=0;childLayout=stackLayout;horizontal=1;startSize=26;fillColor=none;horizontalStack=0;resizeParent=1;resizeParentMax=0;resizeLast=0;collapsible=1;marginBottom=0;html=1;" parent="WIyWlLk6GJQsqaUBKTNV-1" vertex="1">
          <mxGeometry x="260" y="106" width="180" height="104" as="geometry" />
        </mxCell>
        <mxCell id="tLWH3kKmql8vXcp0YI-F-9" value="Item 1" style="text;strokeColor=none;fillColor=none;align=left;verticalAlign=top;spacingLeft=4;spacingRight=4;overflow=hidden;rotatable=0;points=[[0,0.5],[1,0.5]];portConstraint=eastwest;whiteSpace=wrap;html=1;" parent="tLWH3kKmql8vXcp0YI-F-8" vertex="1">
          <mxGeometry y="26" width="180" height="26" as="geometry" />
        </mxCell>
        <mxCell id="tLWH3kKmql8vXcp0YI-F-10" value="Item 2" style="text;strokeColor=none;fillColor=none;align=left;verticalAlign=top;spacingLeft=4;spacingRight=4;overflow=hidden;rotatable=0;points=[[0,0.5],[1,0.5]];portConstraint=eastwest;whiteSpace=wrap;html=1;" parent="tLWH3kKmql8vXcp0YI-F-8" vertex="1">
          <mxGeometry y="52" width="180" height="26" as="geometry" />
        </mxCell>
        <mxCell id="tLWH3kKmql8vXcp0YI-F-11" value="Item 3" style="text;strokeColor=none;fillColor=none;align=left;verticalAlign=top;spacingLeft=4;spacingRight=4;overflow=hidden;rotatable=0;points=[[0,0.5],[1,0.5]];portConstraint=eastwest;whiteSpace=wrap;html=1;" parent="tLWH3kKmql8vXcp0YI-F-8" vertex="1">
          <mxGeometry y="78" width="180" height="26" as="geometry" />
        </mxCell>
        <mxCell id="tLWH3kKmql8vXcp0YI-F-12" value="halaman review" style="swimlane;fontStyle=0;childLayout=stackLayout;horizontal=1;startSize=26;fillColor=none;horizontalStack=0;resizeParent=1;resizeParentMax=0;resizeLast=0;collapsible=1;marginBottom=0;html=1;" parent="WIyWlLk6GJQsqaUBKTNV-1" vertex="1">
          <mxGeometry x="630" y="120" width="140" height="104" as="geometry" />
        </mxCell>
        <mxCell id="tLWH3kKmql8vXcp0YI-F-13" value="sistem rating" style="text;strokeColor=none;fillColor=none;align=left;verticalAlign=top;spacingLeft=4;spacingRight=4;overflow=hidden;rotatable=0;points=[[0,0.5],[1,0.5]];portConstraint=eastwest;whiteSpace=wrap;html=1;" parent="tLWH3kKmql8vXcp0YI-F-12" vertex="1">
          <mxGeometry y="26" width="140" height="26" as="geometry" />
        </mxCell>
        <mxCell id="tLWH3kKmql8vXcp0YI-F-14" value="tambah komentar" style="text;strokeColor=none;fillColor=none;align=left;verticalAlign=top;spacingLeft=4;spacingRight=4;overflow=hidden;rotatable=0;points=[[0,0.5],[1,0.5]];portConstraint=eastwest;whiteSpace=wrap;html=1;" parent="tLWH3kKmql8vXcp0YI-F-12" vertex="1">
          <mxGeometry y="52" width="140" height="26" as="geometry" />
        </mxCell>
        <mxCell id="tLWH3kKmql8vXcp0YI-F-15" value="Item 3" style="text;strokeColor=none;fillColor=none;align=left;verticalAlign=top;spacingLeft=4;spacingRight=4;overflow=hidden;rotatable=0;points=[[0,0.5],[1,0.5]];portConstraint=eastwest;whiteSpace=wrap;html=1;" parent="tLWH3kKmql8vXcp0YI-F-12" vertex="1">
          <mxGeometry y="78" width="140" height="26" as="geometry" />
        </mxCell>
        <mxCell id="tLWH3kKmql8vXcp0YI-F-16" value="Halaman perbandingan" style="swimlane;fontStyle=0;childLayout=stackLayout;horizontal=1;startSize=26;fillColor=none;horizontalStack=0;resizeParent=1;resizeParentMax=0;resizeLast=0;collapsible=1;marginBottom=0;html=1;" parent="WIyWlLk6GJQsqaUBKTNV-1" vertex="1">
          <mxGeometry x="470" y="110" width="140" height="104" as="geometry" />
        </mxCell>
        <mxCell id="tLWH3kKmql8vXcp0YI-F-17" value="Item 1" style="text;strokeColor=none;fillColor=none;align=left;verticalAlign=top;spacingLeft=4;spacingRight=4;overflow=hidden;rotatable=0;points=[[0,0.5],[1,0.5]];portConstraint=eastwest;whiteSpace=wrap;html=1;" parent="tLWH3kKmql8vXcp0YI-F-16" vertex="1">
          <mxGeometry y="26" width="140" height="26" as="geometry" />
        </mxCell>
        <mxCell id="tLWH3kKmql8vXcp0YI-F-18" value="Item 2" style="text;strokeColor=none;fillColor=none;align=left;verticalAlign=top;spacingLeft=4;spacingRight=4;overflow=hidden;rotatable=0;points=[[0,0.5],[1,0.5]];portConstraint=eastwest;whiteSpace=wrap;html=1;" parent="tLWH3kKmql8vXcp0YI-F-16" vertex="1">
          <mxGeometry y="52" width="140" height="26" as="geometry" />
        </mxCell>
        <mxCell id="tLWH3kKmql8vXcp0YI-F-19" value="Item 3" style="text;strokeColor=none;fillColor=none;align=left;verticalAlign=top;spacingLeft=4;spacingRight=4;overflow=hidden;rotatable=0;points=[[0,0.5],[1,0.5]];portConstraint=eastwest;whiteSpace=wrap;html=1;" parent="tLWH3kKmql8vXcp0YI-F-16" vertex="1">
          <mxGeometry y="78" width="140" height="26" as="geometry" />
        </mxCell>
        <mxCell id="tLWH3kKmql8vXcp0YI-F-22" value="kategori hanya handphone saja , untuk yang lain opsional jika memungkinkan&amp;nbsp;" style="text;html=1;align=center;verticalAlign=middle;whiteSpace=wrap;rounded=0;" parent="WIyWlLk6GJQsqaUBKTNV-1" vertex="1">
          <mxGeometry width="540" height="30" as="geometry" />
        </mxCell>
        <mxCell id="tLWH3kKmql8vXcp0YI-F-23" value="Filter untuk mempersempit pencarian (misalnya, merek, harga, spesifikasi).&lt;div class=&quot;attachment-container search-images&quot;&gt;&lt;div class=&quot;image-container hide-from-message-actions ng-star-inserted&quot;&gt;&lt;div class=&quot;overlay-container ng-star-inserted&quot;&gt;&lt;a href=&quot;https://factory.dev/blog/filtering-options&quot; class=&quot;image-source-link ng-star-inserted&quot; aria-live=&quot;polite&quot; rel=&quot;noopener&quot; target=&quot;_blank&quot;&gt;&lt;span class=&quot;ng-star-inserted&quot; data-test-id=&quot;content&quot;&gt;&lt;/span&gt;&lt;/a&gt;&lt;/div&gt;&lt;/div&gt;&lt;/div&gt;" style="text;html=1;align=center;verticalAlign=middle;whiteSpace=wrap;rounded=0;" parent="WIyWlLk6GJQsqaUBKTNV-1" vertex="1">
          <mxGeometry x="-10" y="20" width="540" height="30" as="geometry" />
        </mxCell>
        <mxCell id="Qs_igsPNUDdVBmLlucyb-0" value="Slider yang menampilkan gadget terbaru atau terpopuler.&lt;div class=&quot;attachment-container search-images&quot;&gt;&lt;div class=&quot;image-container hide-from-message-actions ng-star-inserted&quot;&gt;&lt;div class=&quot;overlay-container ng-star-inserted&quot;&gt;&lt;a href=&quot;https://factory.dev/blog/filtering-options&quot; class=&quot;image-source-link ng-star-inserted&quot; aria-live=&quot;polite&quot; rel=&quot;noopener&quot; target=&quot;_blank&quot;&gt;&lt;span class=&quot;ng-star-inserted&quot; data-test-id=&quot;content&quot;&gt;&lt;/span&gt;&lt;/a&gt;&lt;/div&gt;&lt;/div&gt;&lt;/div&gt;" style="text;html=1;align=center;verticalAlign=middle;whiteSpace=wrap;rounded=0;" vertex="1" parent="WIyWlLk6GJQsqaUBKTNV-1">
          <mxGeometry x="-60" y="40" width="540" height="30" as="geometry" />
        </mxCell>
        <mxCell id="Qs_igsPNUDdVBmLlucyb-1" value="Tombol &quot;Bandingkan&quot; yang memungkinkan pengguna untuk membandingkan dua gadget atau lebih secara berdampingan.&lt;div class=&quot;attachment-container search-images&quot;&gt;&lt;div class=&quot;image-container hide-from-message-actions ng-star-inserted&quot;&gt;&lt;div class=&quot;overlay-container ng-star-inserted&quot;&gt;&lt;a href=&quot;https://factory.dev/blog/filtering-options&quot; class=&quot;image-source-link ng-star-inserted&quot; aria-live=&quot;polite&quot; rel=&quot;noopener&quot; target=&quot;_blank&quot;&gt;&lt;span class=&quot;ng-star-inserted&quot; data-test-id=&quot;content&quot;&gt;&lt;/span&gt;&lt;/a&gt;&lt;/div&gt;&lt;/div&gt;&lt;/div&gt;" style="text;html=1;align=center;verticalAlign=middle;whiteSpace=wrap;rounded=0;" vertex="1" parent="WIyWlLk6GJQsqaUBKTNV-1">
          <mxGeometry x="40" y="60" width="690" height="30" as="geometry" />
        </mxCell>
        <mxCell id="Qs_igsPNUDdVBmLlucyb-2" value="autentikasi" style="swimlane;fontStyle=0;childLayout=stackLayout;horizontal=1;startSize=26;fillColor=none;horizontalStack=0;resizeParent=1;resizeParentMax=0;resizeLast=0;collapsible=1;marginBottom=0;html=1;" vertex="1" parent="WIyWlLk6GJQsqaUBKTNV-1">
          <mxGeometry x="70" y="260" width="140" height="104" as="geometry" />
        </mxCell>
        <mxCell id="Qs_igsPNUDdVBmLlucyb-3" value="login" style="text;strokeColor=none;fillColor=none;align=left;verticalAlign=top;spacingLeft=4;spacingRight=4;overflow=hidden;rotatable=0;points=[[0,0.5],[1,0.5]];portConstraint=eastwest;whiteSpace=wrap;html=1;" vertex="1" parent="Qs_igsPNUDdVBmLlucyb-2">
          <mxGeometry y="26" width="140" height="26" as="geometry" />
        </mxCell>
        <mxCell id="Qs_igsPNUDdVBmLlucyb-4" value="daftar" style="text;strokeColor=none;fillColor=none;align=left;verticalAlign=top;spacingLeft=4;spacingRight=4;overflow=hidden;rotatable=0;points=[[0,0.5],[1,0.5]];portConstraint=eastwest;whiteSpace=wrap;html=1;" vertex="1" parent="Qs_igsPNUDdVBmLlucyb-2">
          <mxGeometry y="52" width="140" height="26" as="geometry" />
        </mxCell>
        <mxCell id="Qs_igsPNUDdVBmLlucyb-5" value="lupa password" style="text;strokeColor=none;fillColor=none;align=left;verticalAlign=top;spacingLeft=4;spacingRight=4;overflow=hidden;rotatable=0;points=[[0,0.5],[1,0.5]];portConstraint=eastwest;whiteSpace=wrap;html=1;" vertex="1" parent="Qs_igsPNUDdVBmLlucyb-2">
          <mxGeometry y="78" width="140" height="26" as="geometry" />
        </mxCell>
        <mxCell id="Qs_igsPNUDdVBmLlucyb-10" value="dengan adanya itur personalisasi maka bisa menyimpan personalisasi user seperti gadget favorit, gadget impian tergantung dari user nya (membuat daftar keinginan)" style="text;html=1;align=center;verticalAlign=middle;whiteSpace=wrap;rounded=0;" vertex="1" parent="WIyWlLk6GJQsqaUBKTNV-1">
          <mxGeometry x="240" y="270" width="450" height="30" as="geometry" />
        </mxCell>
        <mxCell id="Qs_igsPNUDdVBmLlucyb-11" value="https://github.com/nordmarin/gsmarena-api" style="text;html=1;align=center;verticalAlign=middle;whiteSpace=wrap;rounded=0;" vertex="1" parent="WIyWlLk6GJQsqaUBKTNV-1">
          <mxGeometry x="40" y="400" width="450" height="30" as="geometry" />
        </mxCell>
        <mxCell id="Qs_igsPNUDdVBmLlucyb-12" value="fitur pencarian di halaman utama untuk secara realtime sesuai yang dicari user&lt;div class=&quot;attachment-container search-images&quot;&gt;&lt;div class=&quot;image-container hide-from-message-actions ng-star-inserted&quot;&gt;&lt;div class=&quot;overlay-container ng-star-inserted&quot;&gt;&lt;a href=&quot;https://factory.dev/blog/filtering-options&quot; class=&quot;image-source-link ng-star-inserted&quot; aria-live=&quot;polite&quot; rel=&quot;noopener&quot; target=&quot;_blank&quot;&gt;&lt;span class=&quot;ng-star-inserted&quot; data-test-id=&quot;content&quot;&gt;&lt;/span&gt;&lt;/a&gt;&lt;/div&gt;&lt;/div&gt;&lt;/div&gt;" style="text;html=1;align=center;verticalAlign=middle;whiteSpace=wrap;rounded=0;" vertex="1" parent="WIyWlLk6GJQsqaUBKTNV-1">
          <mxGeometry x="-5" y="76" width="540" height="30" as="geometry" />
        </mxCell>
        <mxCell id="Qs_igsPNUDdVBmLlucyb-14" value="jika memungkinkan menggunakan firebase untuk skema autentikasi dan token" style="rounded=0;whiteSpace=wrap;html=1;" vertex="1" parent="WIyWlLk6GJQsqaUBKTNV-1">
          <mxGeometry x="30" y="430" width="120" height="60" as="geometry" />
        </mxCell>
        <mxCell id="Qs_igsPNUDdVBmLlucyb-15" value="teknologi yang dibutuhkan untuk membuatnya&lt;div&gt;1. node js&lt;/div&gt;&lt;div&gt;2. tailwindcss&lt;/div&gt;&lt;div&gt;3. jwt untuk auth&amp;nbsp;&lt;/div&gt;&lt;div&gt;4. api gsmarena&amp;nbsp;&lt;/div&gt;&lt;div&gt;5. express js untuk routing halaman&lt;/div&gt;&lt;div&gt;6. mysql untuk personalisai user dan mungkin untuk auth user&lt;/div&gt;&lt;div&gt;&lt;br&gt;&lt;/div&gt;" style="rounded=0;whiteSpace=wrap;html=1;" vertex="1" parent="WIyWlLk6GJQsqaUBKTNV-1">
          <mxGeometry x="240" y="440" width="300" height="240" as="geometry" />
        </mxCell>
        <mxCell id="Qs_igsPNUDdVBmLlucyb-16" value="referensi web desain&lt;div&gt;1. gsmarena&lt;/div&gt;&lt;div&gt;2.&amp;nbsp;https://id.kalvo.com/nothing-cmf-phone-1-115178.html&lt;/div&gt;&lt;div&gt;&lt;br&gt;&lt;/div&gt;" style="rounded=0;whiteSpace=wrap;html=1;" vertex="1" parent="WIyWlLk6GJQsqaUBKTNV-1">
          <mxGeometry x="70" y="720" width="220" height="240" as="geometry" />
        </mxCell>
      </root>
    </mxGraphModel>
  </diagram>
</mxfile>
